<?xml version="1.0" encoding="utf-8"?>
<!-- Generator: Adobe Illustrator 28.1.0, SVG Export Plug-In . SVG Version: 6.00 Build 0)  -->
<svg version="1.1" id="_圖層_1" xmlns="http://www.w3.org/2000/svg" xmlns:xlink="http://www.w3.org/1999/xlink" x="0px" y="0px"
	 viewBox="0 0 20 26.2" style="enable-background:new 0 0 20 26.2;" xml:space="preserve">
<style type="text/css">
	.st0{fill:#FFFFFF;}
</style>
<g>
	<path class="st0" d="M15.7,6.7c-0.7,0-1.3,0-2,0c-0.6,0-1-0.4-1-1c0-1.3,0-2.6,0-3.9c0-0.1,0.1-0.2,0.1-0.3c0.1,0,0.2,0.1,0.3,0.1
		c1.6,1.6,3.1,3.1,4.7,4.7C17.9,6.3,18,6.5,18,6.6c-0.1,0-0.2,0.1-0.3,0.1C17,6.7,16.4,6.7,15.7,6.7z"/>
	<path class="st0" d="M18.1,8.5c-1.4,0-2.9,0-4.3,0c-1.7,0-2.9-1.2-2.9-2.9c0-1.4,0-2.9,0-4.3c0-0.7-0.4-1.1-1.1-1.1
		c-2.3,0-4.7,0-7,0c-1.3,0-2,0.7-2,2c0,3.6,0,7.2,0,10.9c0,3.6,0,7.3,0,10.9c0,1.2,0.8,2,2,2c4.8,0,9.6,0,14.5,0c1.2,0,2-0.8,2-2
		c0-4.8,0-9.6,0-14.5C19.2,8.9,18.8,8.5,18.1,8.5z M5,21.4C4.5,21.4,4,21,4,20.5c0-0.5,0.4-0.9,0.9-0.9c0.5,0,0.9,0.4,0.9,0.9
		C5.9,20.9,5.5,21.4,5,21.4z M4.9,17.7c-0.5,0-0.9-0.4-0.9-0.9c0-0.5,0.4-0.9,0.9-0.9c0.5,0,0.9,0.4,0.9,0.9
		C5.9,17.3,5.4,17.7,4.9,17.7z M5,14C4.5,14,4,13.6,4,13.1c0-0.5,0.4-0.9,0.9-0.9c0.5,0,0.9,0.4,0.9,0.9C5.9,13.6,5.5,14,5,14z
		 M15,21.4c-2.1,0-4.2,0-6.2,0c-0.6,0-1-0.4-1-0.9c0-0.5,0.4-0.9,1-0.9c1.1,0,2.1,0,3.2,0c1,0,2.1,0,3.1,0c0.6,0,1,0.4,1,0.9
		C16,21,15.6,21.4,15,21.4z M15,17.7c-2.1,0-4.2,0-6.3,0c-0.6,0-1-0.4-1-0.9c0-0.5,0.4-0.9,1-0.9c1,0,2.1,0,3.1,0c1,0,2.1,0,3.1,0
		c0.6,0,1,0.4,1,0.9C16,17.3,15.6,17.7,15,17.7z M14.9,14c-1,0-2.1,0-3.1,0s-2.1,0-3.1,0c-0.6,0-1-0.4-1-0.9c0-0.5,0.4-0.9,1-0.9
		c2.1,0,4.1,0,6.2,0c0.6,0,1,0.4,1,0.9C16,13.6,15.6,14,14.9,14z"/>
</g>
</svg>
