<?xml version="1.0" encoding="UTF-8"?>
<svg id="_圖層_1" xmlns="http://www.w3.org/2000/svg" version="1.1" viewBox="0 0 190 30.7">
  <!-- Generator: Adobe Illustrator 30.0.0, SVG Export Plug-In . SVG Version: 2.1.1 Build 123)  -->
  <defs>
    <style>
      .st0 {
        fill: #373838;
      }

      .st1 {
        fill: #e84b22;
      }
    </style>
  </defs>
  <g>
    <path class="st0" d="M3.85,28.27c0,.51-.54.93-1.24.93H0v-4.18h2.62c.7,0,1.24.41,1.24.93v2.33ZM3.22,26c0-.39-.35-.57-.88-.57H.63v3.35h1.72c.53,0,.88-.18.88-.57v-2.22Z"/>
    <path class="st0" d="M5.67,25.55v-.74h.63v.74h-.63ZM5.67,29.2v-2.93h.63v2.93h-.63Z"/>
    <path class="st0" d="M8.03,27.31v-.07c0-.61.36-1.03,1.62-1.03.3,0,.54.02.74.07h1.51v.41h-.08l-.89-.1c.25.17.34.44.34.65v.07c0,.79-.76,1-1.62,1-.19,0-.21,0-.35-.01l-.08.11c-.06.07-.08.11-.08.19,0,.14.2.18.46.2l1.01.1c.71.07,1.13.32,1.13.67v.12c0,.61-.98.9-1.93.9-1.02,0-1.84-.27-1.84-.88v-.05c0-.27.2-.56.84-.72-.13-.04-.3-.14-.3-.29v-.1s0-.07.03-.11l.25-.23c-.43-.12-.75-.41-.75-.91ZM11.15,29.62c0-.19-.25-.35-.61-.38l-1.26-.11c-.55.09-.74.28-.74.51v.06c0,.33.52.5,1.27.5.65,0,1.35-.17,1.35-.51v-.08ZM8.65,27.14v.22c0,.4.4.57,1,.57s1-.17,1-.57v-.22c0-.41-.4-.58-1-.58s-1,.17-1,.58Z"/>
    <path class="st0" d="M13.37,25.55v-.74h.63v.74h-.63ZM13.37,29.2v-2.93h.63v2.93h-.63Z"/>
    <path class="st0" d="M17.91,29.22c-.14.02-.43.05-.59.05-.75,0-1.14-.22-1.14-.89v-1.69h-.72v-.41h.72v-.67l.3-.17h.33v.84h1.17v.41h-1.17v1.62c0,.33.13.52.58.52.09,0,.42-.02.53-.03v.42Z"/>
    <path class="st0" d="M21.58,28.71l-1.04.53c-.08.02-.18.02-.24.02-.8,0-1.28-.33-1.28-.82v-.15c0-.41.4-.79,1.44-.82l1.12-.03v-.27c0-.45-.45-.54-.99-.54-.39,0-.93.04-1.23.06v-.43s.96-.06,1.39-.06c.74,0,1.46.19,1.46.99v2.01h-.63v-.49ZM21.58,27.82l-1.18.04c-.5.02-.76.19-.76.43v.16c0,.2.21.38.58.38.18,0,.33-.04.54-.12l.81-.35v-.54Z"/>
    <path class="st0" d="M23.97,29.2v-4.39h.63v4.39h-.63Z"/>
    <path class="st0" d="M31.78,27.97h-2.45l-.58,1.24h-.66l1.97-4.18h.98l1.97,4.18h-.66l-.58-1.24ZM29.53,27.54h2.06l-.98-2.09h-.08l-.99,2.09Z"/>
    <path class="st0" d="M36.97,29.2v-.49l-1.04.53c-.08.02-.17.02-.24.02-.91,0-1.34-.4-1.34-.94v-1.1c0-.61.36-1.03,1.62-1.03.3,0,.74.05.99.13v-1.52h.63v4.39h-.63ZM36.97,26.75s-.61-.13-1-.13c-.6,0-.99.17-.99.59v1.02c0,.41.23.59.66.59.11,0,.26-.02.4-.07l.93-.38v-1.62Z"/>
    <path class="st0" d="M41.75,26.27h.65l-1.38,2.93h-.9l-1.38-2.93h.65l1.13,2.52h.08l1.13-2.52Z"/>
    <path class="st0" d="M46.7,27.23v.71h-2.61v.27c0,.51.61.63,1.24.63.36,0,.88-.03,1.24-.06v.43c-.44.04-.83.07-1.29.07-.91,0-1.8-.24-1.8-1.11v-.92c0-.61.36-1.03,1.62-1.03s1.61.43,1.61,1.03ZM46.07,27.53v-.36c0-.34-.29-.56-.98-.56-.6,0-1,.16-1,.58v.35h1.98Z"/>
    <path class="st0" d="M48.1,29.2v-2.93h.63v.68h.04s.33-.71,1.47-.71v.48c-1.06,0-1.49.73-1.51.77v1.71h-.63Z"/>
    <path class="st0" d="M53.38,29.22c-.14.02-.43.05-.59.05-.75,0-1.14-.22-1.14-.89v-1.69h-.72v-.41h.72v-.67l.3-.17h.33v.84h1.17v.41h-1.17v1.62c0,.33.13.52.58.52.09,0,.42-.02.53-.03v.42Z"/>
    <path class="st0" d="M54.81,25.55v-.74h.63v.74h-.63ZM54.81,29.2v-2.93h.63v2.93h-.63Z"/>
    <path class="st0" d="M60.02,28.48c0,.53-.5.79-1.51.79-.73,0-1.35-.07-1.35-.07v-.42s.78.07,1.24.07c.74,0,1.03-.1,1.03-.38v-.13c0-.17-.11-.32-.53-.36l-.81-.08c-.56-.06-.94-.33-.94-.71v-.2c0-.53.51-.79,1.46-.79.49,0,.85.04,1.18.06v.41s-.62-.06-1.08-.06c-.69,0-.97.1-.97.39v.12c0,.17.11.32.53.36l.81.08c.57.06.94.33.94.71v.2Z"/>
    <path class="st0" d="M61.69,25.55v-.74h.63v.74h-.63ZM61.69,29.2v-2.93h.63v2.93h-.63Z"/>
    <path class="st0" d="M66.7,29.2v-1.97c0-.4-.2-.57-.66-.57-.11,0-.27.02-.4.07l-.93.38v2.09h-.63v-2.93h.63v.49l1.04-.53c.08-.02.17-.02.24-.02.96,0,1.34.4,1.34.94v2.06h-.63Z"/>
    <path class="st0" d="M68.83,27.31v-.07c0-.61.36-1.03,1.62-1.03.3,0,.54.02.74.07h1.51v.41h-.08l-.89-.1c.25.17.34.44.34.65v.07c0,.79-.76,1-1.62,1-.19,0-.21,0-.35-.01l-.08.11c-.06.07-.08.11-.08.19,0,.14.2.18.46.2l1.01.1c.71.07,1.13.32,1.13.67v.12c0,.61-.98.9-1.93.9-1.02,0-1.84-.27-1.84-.88v-.05c0-.27.2-.56.84-.72-.13-.04-.3-.14-.3-.29v-.1s0-.07.03-.11l.25-.23c-.43-.12-.75-.41-.75-.91ZM71.95,29.62c0-.19-.25-.35-.61-.38l-1.26-.11c-.55.09-.74.28-.74.51v.06c0,.33.52.5,1.27.5.65,0,1.35-.17,1.35-.51v-.08ZM69.45,27.14v.22c0,.4.4.57,1,.57s1-.17,1-.57v-.22c0-.41-.4-.58-1-.58s-1,.17-1,.58Z"/>
    <path class="st0" d="M75.84,27.71v-.41h2.39v.41h-2.39Z"/>
    <path class="st0" d="M85.29,28.2c0,.72-.63,1.07-1.89,1.07-.89,0-1.68-.06-1.68-.06v-.45s.93.07,1.64.07c.89,0,1.3-.19,1.3-.66v-.23c0-.3-.2-.52-.78-.57l-.96-.09c-.72-.07-1.24-.42-1.24-.95v-.31c0-.72.64-1.07,1.84-1.07.61,0,1.06.04,1.47.07v.45s-.85-.07-1.39-.07c-.89,0-1.3.19-1.3.66v.22c0,.3.2.52.78.57l.96.09c.75.07,1.23.42,1.23.95v.32Z"/>
    <path class="st0" d="M90.58,26.43c0,.42-.36.79-.87.89l1.31,1.88h-.69l-1.29-1.84h-1.51v1.84h-.63v-4.18h2.42c.74,0,1.25.41,1.25.93v.48ZM89.95,26.02c0-.39-.35-.58-.88-.58h-1.54v1.51h1.57c.53,0,.85-.18.85-.57v-.36Z"/>
    <path class="st0" d="M94.84,27.65l1.65-2.63h.64v4.18h-.63v-3.14h-.03l-1.36,2.12h-.63l-1.36-2.12h-.03v3.14h-.63v-4.18h.64l1.65,2.63h.08Z"/>
    <path class="st0" d="M100.69,27.71v-.41h2.39v.41h-2.39Z"/>
    <path class="st0" d="M109.78,27.97h-2.45l-.58,1.24h-.66l1.97-4.18h.98l1.97,4.18h-.66l-.58-1.24ZM107.53,27.54h2.06l-.98-2.09h-.08l-.99,2.09Z"/>
    <path class="st0" d="M112.98,26.27v1.96c0,.37.2.58.66.58.11,0,.26-.02.4-.07l.93-.38v-2.09h.63v2.93h-.63v-.49l-1.04.53c-.08.02-.17.02-.24.02-.91,0-1.34-.4-1.34-.94v-2.06h.63Z"/>
    <path class="st0" d="M119.28,29.22c-.14.02-.43.05-.59.05-.75,0-1.14-.22-1.14-.89v-1.69h-.72v-.41h.72v-.67l.3-.17h.33v.84h1.17v.41h-1.17v1.62c0,.33.13.52.58.52.09,0,.42-.02.53-.03v.42Z"/>
    <path class="st0" d="M123.85,27.22v1.04c0,.8-.82,1.02-1.68,1.02s-1.68-.22-1.68-1.02v-1.04c0-.8.82-1.02,1.68-1.02s1.68.22,1.68,1.02ZM121.12,27.22v1.02c0,.43.39.63,1.05.63s1.05-.19,1.05-.63v-1.02c0-.43-.39-.62-1.05-.62s-1.05.19-1.05.62Z"/>
    <path class="st0" d="M127.92,29.2v-2.07c0-.3-.23-.47-.61-.47-.11,0-.23.02-.36.07l-.93.38v2.09h-.63v-2.93h.63v.49l1.04-.53c.08-.02.17-.02.24-.02.68,0,1.06.22,1.19.59l1.1-.56c.08-.02.17-.02.24-.02.87,0,1.25.36,1.25.94v2.06h-.63v-2.08c0-.3-.23-.46-.61-.46-.11,0-.23.02-.36.07l-.93.38v2.09h-.63Z"/>
    <path class="st0" d="M135.07,28.71l-1.04.53c-.08.02-.18.02-.24.02-.8,0-1.28-.33-1.28-.82v-.15c0-.41.4-.79,1.44-.82l1.12-.03v-.27c0-.45-.45-.54-.99-.54-.39,0-.93.04-1.23.06v-.43s.96-.06,1.39-.06c.74,0,1.46.19,1.46.99v2.01h-.63v-.49ZM135.07,27.82l-1.18.04c-.5.02-.76.19-.76.43v.16c0,.2.21.38.58.38.18,0,.33-.04.54-.12l.81-.35v-.54Z"/>
    <path class="st0" d="M139.38,29.22c-.14.02-.43.05-.59.05-.75,0-1.14-.22-1.14-.89v-1.69h-.72v-.41h.72v-.67l.3-.17h.33v.84h1.17v.41h-1.17v1.62c0,.33.13.52.58.52.09,0,.42-.02.53-.03v.42Z"/>
    <path class="st0" d="M143.83,27.23v.71h-2.61v.27c0,.51.61.63,1.24.63.36,0,.88-.03,1.24-.06v.43c-.44.04-.83.07-1.29.07-.91,0-1.8-.24-1.8-1.11v-.92c0-.61.36-1.03,1.62-1.03s1.61.43,1.61,1.03ZM143.2,27.53v-.36c0-.34-.29-.56-.98-.56-.6,0-1,.16-1,.58v.35h1.98Z"/>
    <path class="st0" d="M147.78,29.2v-.49l-1.04.53c-.08.02-.17.02-.24.02-.91,0-1.34-.4-1.34-.94v-1.1c0-.61.36-1.03,1.62-1.03.3,0,.74.05.99.13v-1.52h.63v4.39h-.63ZM147.78,26.75s-.61-.13-1-.13c-.6,0-.99.17-.99.59v1.02c0,.41.23.59.66.59.11,0,.26-.02.4-.07l.93-.38v-1.62Z"/>
    <path class="st0" d="M154.61,27.65l1.65-2.63h.64v4.18h-.63v-3.14h-.03l-1.36,2.12h-.63l-1.36-2.12h-.03v3.14h-.63v-4.18h.64l1.65,2.63h.08Z"/>
    <path class="st0" d="M161.03,28.71l-1.04.53c-.08.02-.18.02-.24.02-.8,0-1.28-.33-1.28-.82v-.15c0-.41.4-.79,1.44-.82l1.12-.03v-.27c0-.45-.45-.54-.99-.54-.39,0-.93.04-1.23.06v-.43s.96-.06,1.39-.06c.74,0,1.46.19,1.46.99v2.01h-.63v-.49ZM161.03,27.82l-1.18.04c-.5.02-.76.19-.76.43v.16c0,.2.21.38.58.38.18,0,.33-.04.54-.12l.81-.35v-.54Z"/>
    <path class="st0" d="M163.26,29.2v-2.93h.63v.68h.04s.33-.71,1.47-.71v.48c-1.06,0-1.49.73-1.51.77v1.71h-.63Z"/>
    <path class="st0" d="M168.83,29.2l-1.63-1.26h-.12v1.26h-.63v-4.39h.63v2.72h.08l1.62-1.26h.8l-1.85,1.44,1.94,1.5h-.84Z"/>
    <path class="st0" d="M173.8,27.23v.71h-2.61v.27c0,.51.61.63,1.24.63.36,0,.88-.03,1.24-.06v.43c-.44.04-.83.07-1.29.07-.91,0-1.8-.24-1.8-1.11v-.92c0-.61.36-1.03,1.62-1.03s1.61.43,1.61,1.03ZM173.18,27.53v-.36c0-.34-.29-.56-.98-.56-.6,0-1,.16-1,.58v.35h1.98Z"/>
    <path class="st0" d="M177.3,29.22c-.14.02-.43.05-.59.05-.75,0-1.14-.22-1.14-.89v-1.69h-.72v-.41h.72v-.67l.3-.17h.33v.84h1.17v.41h-1.17v1.62c0,.33.13.52.58.52.09,0,.42-.02.53-.03v.42Z"/>
    <path class="st0" d="M178.73,25.55v-.74h.63v.74h-.63ZM178.73,29.2v-2.93h.63v2.93h-.63Z"/>
    <path class="st0" d="M183.73,29.2v-1.97c0-.4-.2-.57-.66-.57-.11,0-.27.02-.4.07l-.93.38v2.09h-.63v-2.93h.63v.49l1.04-.53c.08-.02.17-.02.24-.02.96,0,1.34.4,1.34.94v2.06h-.63Z"/>
    <path class="st0" d="M185.86,27.31v-.07c0-.61.36-1.03,1.62-1.03.3,0,.54.02.74.07h1.51v.41h-.08l-.89-.1c.25.17.34.44.34.65v.07c0,.79-.76,1-1.62,1-.19,0-.21,0-.35-.01l-.08.11c-.06.07-.08.11-.08.19,0,.14.2.18.46.2l1.01.1c.71.07,1.13.32,1.13.67v.12c0,.61-.98.9-1.93.9-1.02,0-1.84-.27-1.84-.88v-.05c0-.27.2-.56.84-.72-.13-.04-.3-.14-.3-.29v-.1s0-.07.03-.11l.25-.23c-.43-.12-.75-.41-.75-.91ZM188.99,29.62c0-.19-.25-.35-.61-.38l-1.26-.11c-.55.09-.74.28-.74.51v.06c0,.33.52.5,1.27.5.65,0,1.35-.17,1.35-.51v-.08ZM186.48,27.14v.22c0,.4.4.57,1,.57s1-.17,1-.57v-.22c0-.41-.4-.58-1-.58s-1,.17-1,.58Z"/>
  </g>
  <g>
    <g>
      <path class="st1" d="M19.1,15.9h-10.3l-2.43,4.01c-.48.79-1.33,1.27-2.26,1.27H.02L12.33,1.67c.48-.77,1.33-1.23,2.23-1.23h5.89l5.51,20.74h-5.59l-1.27-5.28ZM11.1,12.07h7.06l-1.87-7.92h-.4l-4.8,7.92Z"/>
      <path class="st1" d="M28.84,15.01l2.27-12.41c.23-1.25,1.32-2.16,2.6-2.16h3.07l-2.51,13.71c-.59,3.25,1.91,3.74,4.14,3.74s4.92-.49,5.51-3.74L46.43.44h5.27l-2.66,14.57c-.83,4.54-6.02,6.5-11.29,6.5s-9.74-1.96-8.91-6.5Z"/>
      <path class="st1" d="M98.62,6.58l-1.55,8.47c-.89,4.85-6.05,6.47-11.28,6.47s-9.8-1.63-8.91-6.47l1.55-8.47c.89-4.85,6.09-6.47,11.28-6.47s9.8,1.63,8.91,6.47ZM83.46,7.87l-1.07,5.83c-.57,3.13.93,4.08,4.08,4.08s5-.92,5.57-4.08l1.07-5.83c.57-3.13-.94-4.05-4.09-4.05s-5,.92-5.57,4.05Z"/>
      <path class="st1" d="M140.09,15.65h-10.13l-2.38,3.92c-.48.79-1.33,1.27-2.26,1.27h-4.01l12.1-19.17c.48-.77,1.33-1.23,2.23-1.23h5.77l5.42,20.4h-5.5l-1.25-5.19ZM132.22,11.88h6.95l-1.83-7.79h-.39l-4.72,7.79Z"/>
      <path class="st1" d="M167.63,15.95c-.68,3.71-4.45,5.22-10.65,5.22-2.79,0-7.99-.3-7.99-.3l.68-3.74s4.61.36,7.43.36c4.28,0,5.21-.81,5.47-2.23l.08-.45c.18-1,.11-1.9-2.2-2.14l-4.24-.42c-3.32-.33-5.35-2.29-4.81-5.25l.32-1.75c.65-3.53,4.43-5.13,10.16-5.13,2.24,0,5.77.24,7.28.33l-.71,3.86s-4.6-.39-7.11-.39c-3.22,0-4.32.63-4.56,1.99l-.09.51c-.18,1-.12,1.93,2.16,2.14l4.4.42c3.32.33,5.26,2.17,4.75,4.95l-.37,2.02Z"/>
      <g>
        <path class="st1" d="M176.62,12.45h7.14c1.27,0,2.37-.91,2.6-2.16l.26-1.43h-9.34l.6-3.27h-5.18l-2.79,15.25h14.48c1.27,0,2.37-.91,2.6-2.16l.26-1.43h-11.5l.88-4.8Z"/>
        <path class="st1" d="M173.23,2.6l-.26,1.4h5.18s8.99,0,8.99,0c1.27,0,2.37-.91,2.6-2.16l.26-1.4h-14.17c-1.27,0-2.37.91-2.6,2.16Z"/>
      </g>
      <path class="st1" d="M116.26.44h-10.36c-1.27,0-2.37.91-2.6,2.16l-.26,1.4h5.18s5.42,0,5.42,0c2.36,0,2.88.54,2.56,2.32l-.17.94-2.5,1.66h-6.2l.61-3.33h-5.18l-2.79,15.25h13.23c3.26,0,6.38-2.02,6.83-4.53l.39-2.11c.04-.24.08-.63-.08-.88l-3.04-2.69,3.44-2.29c.24-.24.35-.63.4-.88l.46-2.51c.46-2.51-1.25-4.53-5.34-4.53ZM115.11,15.07c-.35,1.9-1.22,2.17-3.69,2.17h-5.61l.88-4.8h6.24l2.3,2.02-.11.6Z"/>
    </g>
    <path class="st1" d="M69.33.44h-12.77l-.66,3.63h5.27s4.99-.01,4.99-.01c2.51,0,2.86.74,2.59,2.18l-.12.67c-.26,1.44-.92,2.39-3.43,2.39h-4.99l.67-3.65h-5.27l-2.84,15.52h3.07c1.27,0,2.37-.91,2.6-2.16l1.11-6.06h4.31l3.96,8.22h5.75l-4.14-8.59c2.2-.71,3.86-2.36,4.21-4.26l.6-3.28c.47-2.55-1.59-4.6-4.91-4.6Z"/>
  </g>
</svg>