<?xml version="1.0" encoding="UTF-8"?>
<svg id="txt" xmlns="http://www.w3.org/2000/svg" viewBox="0 0 200 52">
  <defs>
    <style>
      .cls-1 {
        fill: #231815;
        stroke-width: 0px;
      }
    </style>
  </defs>
  <path class="cls-1" d="m101.67,12.33h-4.05c.14.17.24.36.39.49,2.22,1.94,1.75,5.49.14,7.35-1.36,1.58-2.97,2.76-4.85,3.63-3.27,1.52-6.67,2.6-10.26,2.85-3.39.23-6.8.26-10.2.24-1.59-.01-3.18-.35-4.76-.58-1.15-.17-3.26.71-3.89,1.67-.34.52-.27,1.12.35,1.59.54.41,1.18.79,1.82.94,2.27.54,4.55,1.06,6.85,1.43,4.29.7,8.59,1.32,12.89,1.93,3.08.44,6.06,1.22,8.94,2.38,1.24.5,2.24,1.32,3.07,2.34.96,1.18.99,2.89.09,4.39-.92,1.53-2.24,2.61-3.78,3.48-2.62,1.47-5.48,2.24-8.37,2.91-3.27.75-6.58,1.33-9.93,1.47-4,.16-8.02.35-12.02.22-4.76-.15-9.49-.71-14.07-2.16-1.72-.54-3.4-1.18-4.85-2.29-2.39-1.83-2.46-4.54-.14-6.43.72-.58,1.52-1.08,2.35-1.49,2.55-1.27,5.28-2.04,8.05-2.69,1.58-.37,3.15-.77,4.72-1.17.16-.04.32-.12.57-.22-.19-.12-.29-.22-.41-.26-1.52-.5-3.04-1.01-4.56-1.49-.24-.08-.51-.09-.77-.09-1.65,0-3.3-.02-4.95.02-.53,0-.77-.14-.71-.69.04-.34,0-.68,0-1.18-.28.16-.45.23-.59.34-1.94,1.58-4.2,1.7-6.53,1.45-2.14-.23-3.94-1.13-5.1-2.98-1.41-2.26-1.63-4.73-.46-7.12,1.18-2.43,3.35-3.54,6.02-3.63,2.04-.07,4.08-.08,6.11-.13.17,0,.34-.02.5-.04.25-2.78-.59-4.38-3.7-4.61-1.7-.12-3.28.26-4.52,1.55-.3.31-.53.26-.81-.02-.95-.95-1.9-1.9-2.88-2.83-.37-.35-.28-.59.03-.91,1.29-1.33,2.87-2.09,4.68-2.35,2.7-.38,5.4-.33,8.06.37,2.61.69,4.65,3.14,4.82,5.83.09,1.51.11,3.03.14,4.54.05,2.6.08,5.2.12,7.8,0,.15.03.29.04.44,2.57-1.16,5.12-2.31,7.78-3.51-.29-.17-.49-.29-.68-.41-.67-.43-1.38-.82-2.01-1.31-2.11-1.64-2.64-4-1.57-6.44.94-2.15,2.7-3.44,4.63-4.57,2.93-1.72,6.16-2.5,9.44-3.14,3.83-.76,7.71-.68,11.59-.68,2.18,0,4.31.32,6.44.74.61.12,1.25.18,1.87.19,4.53.06,9.07.09,13.6.14.85,0,.92.07.94.91,0,.27,0,.54,0,.97.35-.25.57-.41.79-.57,1.22-.88,2.55-1.45,4.09-1.44,1.62.01,3.27-.14,4.76.69,2.22,1.24,3.5,3.13,3.76,5.64.15,1.46.13,2.94.15,4.41.05,3.94.07,7.89.13,11.83,0,.57-.14.76-.73.74-1.45-.04-2.91-.03-4.36,0-.45,0-.64-.16-.64-.59,0-.45-.03-.91-.03-1.36,0-3.36,0-6.72-.02-10.07,0-.99-.06-1.99-.13-2.98-.11-1.46-1.23-2.6-2.91-2.99-1.61-.38-3.48.37-4.15,1.83-.31.68-.4,1.5-.41,2.26-.05,4.18-.04,8.36-.05,12.54,0,1.36,0,1.36-1.38,1.36-1.26,0-2.52-.03-3.77.01-.59.02-.72-.19-.72-.74.02-6.24.01-12.48.01-18.72v-.99Zm-32.33,36.41c1.3,0,2.6-.02,3.9,0,2.42.05,4.79-.28,7.14-.79,2.36-.52,4.68-1.15,6.7-2.53.7-.47,1.33-1.12,1.81-1.82.69-.99.58-1.84-.29-2.69-.55-.54-1.2-1.01-1.88-1.36-2.49-1.3-5.22-1.8-7.96-2.22-2.43-.37-4.87-.71-7.32-1-1.31-.16-2.64-.33-3.95-.24-3.59.23-7.03,1.18-10.33,2.6-1.38.59-2.69,1.32-3.69,2.49-1.16,1.37-1.1,2.71.17,3.97.93.93,2.09,1.46,3.3,1.89,4,1.45,8.16,1.86,12.39,1.69Zm7.88-23.49c.01-.06.02-.12.04-.18,1.91-.03,3.79-.3,5.61-.93,2.28-.79,4.3-1.96,5.58-4.11,1.66-2.8.93-5.78-1.87-7.44-.72-.43-1.51-.8-2.31-1-3.58-.9-7.12-.77-10.57.62-1.9.77-3.5,1.98-4.51,3.76-1.7,2.99-1.57,6.84,2.9,8.28,1.65.53,3.42.67,5.13.99Zm-27.93-2.43c-2.01.07-3.83.08-5.64.23-1.15.09-2.05,1.2-2.09,2.3-.05,1.24.7,2.35,1.93,2.55.95.16,1.95.22,2.9.11,1.26-.14,2.3-.83,2.63-2.1.24-.94.18-1.95.27-3.09Z"/>
  <path class="cls-1" d="m5.81,11.48c.28-.18.45-.29.62-.41,1.39-.94,2.88-1.59,4.61-1.46,1.07.08,2.17.07,3.21.29,1.11.24,2.07.89,2.8,1.79.31.38.56.46.94.09,1.52-1.48,3.39-2.18,5.46-2.24,2.43-.07,4.86.06,6.7,1.98,1.51,1.58,2.42,3.44,2.43,5.69.01,4.94.07,9.88.11,14.82,0,.87,0,.87-.9.87-1.3,0-2.6,0-3.9,0-.91,0-.93-.01-.93-.95-.01-1.28,0-2.56-.01-3.83-.04-3.44-.09-6.89-.13-10.33-.01-.95-.51-1.64-1.21-2.2-1.55-1.26-3.75-1.16-5.24.17-.67.6-.93,1.33-.94,2.19-.05,4.53-.1,9.05-.14,13.58q-.01,1.25-1.23,1.25c-1.24,0-2.47-.03-3.71.01-.62.02-.8-.22-.8-.78.01-1.58,0-3.16,0-4.74-.03-3.01-.08-6.02-.13-9.03-.03-1.71-1-2.94-2.72-3.31-2.43-.53-4.37.76-4.64,2.93-.11.83-.14,1.68-.15,2.52-.02,3.86-.03,7.71,0,11.57,0,.65-.15.86-.83.84-1.47-.05-2.95-.03-4.42,0C.18,32.79,0,32.66,0,32.16c.01-7.28.01-14.56,0-21.84,0-.46.16-.6.61-.59,1.5.02,2.99.03,4.49,0,.52-.01.71.16.67.67-.03.31.02.63.05,1.07Z"/>
  <path class="cls-1" d="m185.44,18.84c-.09-.8-.12-1.49-.26-2.16-.27-1.28-1.27-2.14-2.63-2.35-2.05-.32-3.98-.15-5.55,1.42-.28.28-.53.28-.83-.01-.96-.97-1.93-1.93-2.91-2.88-.35-.33-.24-.56.04-.86,1.3-1.36,2.9-2.1,4.74-2.36,2.68-.38,5.36-.37,7.98.36,2.47.69,4.16,2.28,4.75,4.77.32,1.35.25,2.79.27,4.2.05,4.37.05,8.75.09,13.12,0,.49-.1.7-.64.69-1.5-.03-2.99-.03-4.49,0-.49,0-.67-.15-.63-.64.03-.4,0-.81,0-1.3-.18.08-.29.11-.36.17-1.18,1.04-2.54,1.61-4.11,1.72-1.9.13-3.77.05-5.5-.85-2.06-1.08-3.13-2.84-3.29-5.1-.08-1.15-.06-2.37.24-3.46.69-2.5,2.62-3.83,5.06-4.17,2.18-.3,4.41-.22,6.61-.3.43-.02.86,0,1.43,0Zm-4.41,9.22c.32,0,.67.02,1.02,0,1.31-.09,2.39-.65,2.91-1.86.29-.69.32-1.51.35-2.28.04-1.11,0-1.09-1.11-1.04-.89.04-1.78,0-2.67.03-.58.01-1.17.05-1.75.1-1.08.11-1.7.79-2.05,1.75-.35.98-.06,1.82.63,2.56.73.8,1.68.79,2.67.75Z"/>
  <path class="cls-1" d="m124.61,20.46c.13-1.14.18-2.75.51-4.3.84-3.97,4.18-6.69,8.24-6.82,1.54-.05,3.07-.1,4.57.38,3.22,1.03,5.17,3.25,5.92,6.47.55,2.33.53,4.72.32,7.1-.07.73-.11,1.46-.22,2.19-.59,3.85-4.14,7.21-8.57,7.3-1.32.03-2.69-.05-3.98-.35-3.31-.77-6.49-4.21-6.57-8.33-.02-1.06-.12-2.11-.22-3.64Zm13.83.53s-.05,0-.07,0c0-.61.05-1.22-.01-1.82-.11-1.11-.18-2.25-.92-3.18-.95-1.2-2.51-1.72-3.96-1.32-1.67.46-2.6,1.65-2.71,3.27-.15,2.08-.15,4.19,0,6.27.15,2.02,1.65,3.33,3.49,3.34,2.14.01,3.67-1.24,3.96-3.32.15-1.07.15-2.15.23-3.23Z"/>
  <path class="cls-1" d="m148.54,14.34c0-4.18.01-8.36-.01-12.54,0-.58.13-.8.76-.78,1.47.05,2.95.04,4.42,0,.59-.02.72.19.72.75,0,7.3,0,14.6.02,21.89,0,.86.06,1.73.11,2.59.04.65.49,1.19,1.18,1.28.79.11,1.59.13,2.39.15.55.01.75.23.71.79-.07,1.17-.06,2.34-.13,3.5-.01.19-.24.52-.36.52-1.67,0-3.36.15-4.99-.12-2.72-.46-4.69-3.02-4.69-5.77,0-4.09,0-8.18,0-12.28-.04,0-.08,0-.12,0Z"/>
  <path class="cls-1" d="m162.2,21.06c0-3.57.01-7.15-.01-10.72,0-.56.15-.75.73-.74,1.5.04,2.99.03,4.49,0,.49,0,.68.11.68.65-.02,7.25-.01,14.51,0,21.76,0,.48-.14.65-.63.64-1.54-.03-3.08-.03-4.62,0-.54.01-.65-.19-.65-.68.02-3.64,0-7.28,0-10.91Z"/>
  <path class="cls-1" d="m165.09,5.73c-.82,0-1.65-.02-2.47,0-.43.01-.56-.16-.56-.57.02-1.23.02-2.47,0-3.7,0-.42.13-.58.56-.57,1.65.02,3.29.02,4.94,0,.4,0,.53.15.52.54-.02,1.25-.02,2.51,0,3.76,0,.45-.19.55-.59.54-.8-.02-1.6,0-2.4,0Z"/>
  <g>
    <path class="cls-1" d="m200,8.56c0,2.35-1.94,4.34-4.19,4.33-2.37-.01-4.13-1.87-4.13-4.33,0-2.67,1.68-4.28,4.47-4.24,1.66.02,3.95,1.78,3.85,4.24Zm-1.18-.03c.01-1.8-1.24-3.17-2.94-3.2-1.61-.03-3.09,1.49-3.11,3.19-.01,1.78,1.28,3.19,2.93,3.21,1.89.02,3.1-1.23,3.11-3.19Z"/>
    <path class="cls-1" d="m196.84,9.06c.42-.27.65-.71.65-1.27,0-.98-.63-1.5-1.83-1.5h-1.71v4.5h1.37v-1.43h.22l.74,1.43h1.53l-.97-1.73Zm-1.52-1.64h.26c.47,0,.57.14.57.37,0,.11,0,.45-.57.45h-.26v-.82Z"/>
  </g>
</svg>