<?xml version="1.0" encoding="UTF-8"?>
<svg id="txt" xmlns="http://www.w3.org/2000/svg" viewBox="0 0 220 52">
  <defs>
    <style>
      .cls-1 {
        fill: none;
      }

      .cls-1, .cls-2, .cls-3, .cls-4 {
        stroke-width: 0px;
      }

      .cls-3 {
        fill: #074779;
      }

      .cls-4 {
        fill: #bdca1d;
      }
    </style>
  </defs>
  <g>
    <rect class="cls-3" y="23.45" width="5.17" height="21.85"/>
    <path class="cls-3" d="m12.06,35.51c-6.65,0-12.06-5.41-12.06-12.06s5.41-12.06,12.06-12.06,12.06,5.41,12.06,12.06-5.41,12.06-12.06,12.06Zm0-18.95c-3.8,0-6.89,3.09-6.89,6.89s3.09,6.89,6.89,6.89,6.89-3.09,6.89-6.89-3.09-6.89-6.89-6.89Z"/>
    <path class="cls-3" d="m50.65,35.54l-12.08-.12c-6.62,0-12.03-5.41-12.03-12.06s5.41-12.06,12.06-12.06,12.06,5.41,12.06,12.06v12.18Zm-12.06-19.07c-3.8,0-6.89,3.09-6.89,6.89s3.09,6.89,6.89,6.89l6.89.07v-6.96c0-3.8-3.09-6.89-6.89-6.89Z"/>
    <rect class="cls-3" x="54.26" y="6.1" width="5.17" height="29.52"/>
    <path class="cls-4" d="m94.69,35.67c-6.45,0-11.7-5.25-11.7-11.7v-12.63h5.17v12.63c0,3.6,2.93,6.53,6.53,6.53s6.53-2.93,6.53-6.53v-12.63h5.17v12.63c0,6.45-5.25,11.7-11.7,11.7Z"/>
    <path class="cls-4" d="m94.48,45.9h-5.28v-5.17h5.28c3.72,0,6.75-3.03,6.75-6.75v-10.02h5.17v10.02c0,6.57-5.34,11.91-11.91,11.91Z"/>
    <path class="cls-4" d="m73.75,25.99h-5.12c-3.89,0-7.05-3.16-7.05-7.05v-.76c0-3.89,3.16-7.05,7.05-7.05h10.12v5.17h-10.12c-1.04,0-1.88.84-1.88,1.88v.76c0,1.04.84,1.88,1.88,1.88h5.12v5.17Z"/>
    <path class="cls-4" d="m73.75,35.67h-10.23v-5.17h10.23c1.04,0,1.88-.84,1.88-1.88v-.76c0-1.04-.84-1.88-1.88-1.88h-5.12v-5.17h5.12c3.89,0,7.05,3.16,7.05,7.05v.76c0,3.89-3.16,7.05-7.05,7.05Z"/>
    <path class="cls-4" d="m120.93,25.99h-5.12c-3.89,0-7.05-3.16-7.05-7.05v-.76c0-3.89,3.16-7.05,7.05-7.05h10.12v5.17h-10.12c-1.02,0-1.88.86-1.88,1.88v.76c0,1.04.84,1.88,1.88,1.88h5.12v5.17Z"/>
    <path class="cls-4" d="m120.93,35.67h-10.23v-5.17h10.23c1.04,0,1.88-.84,1.88-1.88v-.76c0-1.04-.84-1.88-1.88-1.88h-5.12v-5.17h5.12c3.89,0,7.05,3.16,7.05,7.05v.76c0,3.89-3.16,7.05-7.05,7.05Z"/>
  </g>
  <g>
    <g>
      <path class="cls-1" d="m143.69,28.21q-.01.59-.04,1.29h2.18v-1.87h-2.13c-.01.26-.01.47-.01.59Z"/>
      <rect class="cls-1" x="137.79" y="24.66" width="1.97" height="1.74"/>
      <rect class="cls-1" x="143.72" y="24.67" width="2.11" height="1.74"/>
      <path class="cls-1" d="m139.76,29.48v-1.87h-1.98c0,.75-.01.98-.03,1.32v.55h2.01Z"/>
    </g>
    <g>
      <rect class="cls-2" x="150.62" y="23.41" width="5.42" height="1.19"/>
      <path class="cls-2" d="m152.98,28.39l-.54-.53h-2.69v1.19h1.76c-.3,1.7-.92,2.86-2.05,3.88l1.07.99c1.26-1.25,1.98-2.8,2.35-5.05.04-.25.05-.3.09-.48Z"/>
      <path class="cls-2" d="m174.59,31.44c.5-.92.8-1.73,1.04-2.75.18-.78.23-1.17.34-2.45h.72v-1.3h-1.91s-1.2,0-1.2,0c.03-.16.05-.26.08-.39q.26-1.33.31-1.48l-1.52-.22c-.01,1.67-.68,3.94-1.52,5.14.01-.06.01-.1.02-.16h-.46c-.15,0-.35,0-.65,0h-1.41v-.52h2.38v-1.33h.76v-.98h-.45c-.08,0-.18,0-.31,0h0s0,0,0,0v-1.33h-.85c-.11,0-.21,0-.35,0h-1.19s0,0,0,0h0v-.78h-1.25v.78h0s0,0,0,0h-1.17c-.13,0-.24,0-.34,0h-.87v1.33h0s-.69,0-.69,0v1h.69v1.31h2.37v.52h0s-1.46,0-1.46,0c-.29,0-.49,0-.64,0h-.38v.61s0,.07,0,.11v.81s0,.08,0,.12v.6h1.34s.75,0,.75,0c-.12.23-.2.39-.3.55h-1.34s-.05,0-.08,0h-.99v.99h1.76c-.26.34-.41.53-.85,1,.91.3,1.03.34,1.88.68-.69.27-1.48.42-2.63.46l.49,1.2c1.64-.22,2.6-.51,3.51-1.05.58.29.91.46,1.75.92l.62-.73.61.87c1.11-.76,1.83-1.39,2.52-2.26.68.86.92,1.09,2.32,2.19l.94-1.33c-1.19-.73-1.78-1.22-2.43-2.11Zm-6.14-6.83h1.26v.47h-1.26v-.47Zm0,1.3h1.26v.48h-1.26v-.48Zm0,2.76h1.32v.52h-1.32v-.52Zm-2.45-4.06h1.21v.47h-1.21v-.47Zm0,1.78v-.48h1.21v.48h-1.21Zm-.07,2.8v-.52h1.27v.52h-1.27Zm2.17,3.41c-.6-.22-.66-.23-1.3-.42.23-.29.3-.36.45-.57h1.64c-.22.43-.42.69-.79.99Zm2.59.96q-.1.06-.14.08c-.8-.38-.92-.43-1.25-.57.42-.44.61-.72.96-1.46h1.46v-.99h-.99s-.05,0-.08,0h-2.78q.16-.29.3-.55h.48s2.27,0,2.27,0v-1.38c.15.16.25.28.35.42l.28.34c.23-.29.32-.4.46-.63.22.95.53,1.78.96,2.62-.61.85-1.46,1.64-2.29,2.12Zm3.08-3.53c-.39-.9-.68-1.94-.83-3.02.14-.35.18-.48.27-.77h1.38c-.11,1.65-.31,2.58-.83,3.79Z"/>
      <path class="cls-2" d="m181.3,26.23c.47-.99.84-1.87,1.26-3.07l-1.56-.38c-.07.47-.26,1.08-.52,1.72-.54,1.39-1.3,2.59-2.25,3.57.27.51.49,1.05.61,1.56.39-.44.57-.66,1.04-1.37-.03.55-.04,1.03-.04,1.46v3.7c0,.17,0,.32,0,.45v1.07h1.46v-1.29c0-.07,0-.14,0-.21v-7.2Z"/>
      <path class="cls-2" d="m182.28,26.44h8.43v-1.31h-1.98s-1.63,0-1.63,0v-1.11c0-.14,0-.25,0-.36v-.66h-1.48v2.12h-1.46s-1.89,0-1.89,0v1.31Z"/>
      <path class="cls-2" d="m189.67,33.06c-.05,0-.1,0-.16,0h-1.52c.56-1.48,1-2.81,1.3-3.97q.31-1.13.5-1.8l-1.65-.36c-.19,1.65-.84,4.07-1.64,6.13h-2.96s-.04,0-.07,0h-1.51v1.31h7.48c.17,0,.32,0,.46,0h1.15v-1.32h-1.4Z"/>
      <path class="cls-2" d="m184.27,32.54l1.48-.39c-.47-2.15-.8-3.29-1.51-5.1l-1.41.48c.65,1.6,1.04,2.99,1.44,5.01Z"/>
      <path class="cls-2" d="m204.07,30.11v-5.61c0-.21,0-.39,0-.55v-.95h-1.48v1.4h0s0,.07,0,.11v5.91l-3.27.7c-.16.04-.32.07-.49.1h0s-.79.14-.79.14l.17,1.42,1.3-.28s0,0,.01,0h.07s0-.01,0-.01l2.98-.64v1.61c0,.22,0,.41,0,.57h0v.98h1.49v-.98c0-.16,0-.34,0-.55v-1.94l.11-.03c.1-.02.19-.04.28-.06l1.01-.22-.11-1.38-1.28.27Z"/>
      <path class="cls-2" d="m201.44,26.93l.92-1.17c-.75-.75-1.3-1.18-2.62-2.04l-.87,1.07c1.11.72,1.69,1.21,2.56,2.15Z"/>
      <path class="cls-2" d="m198.42,28.01c1,.64,1.5,1.05,2.58,2.13l.85-1.16c-.87-.81-1.36-1.2-2.56-2.02l-.87,1.04Z"/>
      <path class="cls-2" d="m197.82,30.86l.79-1.12c-.62-.66-1.15-1.15-1.95-1.73v-.39h.72c.11,0,.21,0,.3,0h.73v-1.27h-.92s-.05,0-.08,0h-.75v-1.6c.64-.17,1.34-.39,1.71-.53q.16-.08.22-.09l-.84-1.2c-.81.51-2.43.89-4.62,1.11l.51,1.25c.79-.1,1.02-.13,1.59-.23v1.3h-.85c-.07,0-.12,0-.18,0h0s-1.04,0-1.04,0v1.27h.85c.1,0,.22,0,.34,0h.7c-.15.44-.38.98-.65,1.47-.47.89-.91,1.5-1.53,2.11l.8,1.35c.77-.94,1.21-1.73,1.64-2.93-.07.99-.08,1.34-.08,1.65v2.11s0,.08,0,.12h0v1.48h1.44v-1.13c0-.14,0-.3,0-.47v-3.92c.47.51.6.65,1.17,1.39Z"/>
      <path class="cls-2" d="m216.58,31.96c.91-.91,1.52-1.73,2.11-2.86.26-.49.31-.6.42-.77l-.67-.69h-2.3v-1.67h3.43v-1.29h-1.41s-.09,0-.13,0h-1.88v-.4c0-.06,0-.11,0-.16v-1.14h-1.47v1.7h0s-1.29,0-1.29,0c-.05,0-.1,0-.15,0h-1.39v.68h0v.61h2.83v1.67h0s-2.66,0-2.66,0v1.26h.54c.52,1.24,1.04,2.07,1.91,3.02-1.15.81-2.21,1.29-3.67,1.68l.76,1.34c1.41-.43,2.66-1.08,3.93-2.06,1.1.88,2.17,1.5,3.66,2.1l.84-1.42c-1.42-.43-2.44-.9-3.42-1.6Zm-1.04-.88c-.62-.61-1.15-1.39-1.48-2.19h3.17c-.49.92-.91,1.48-1.69,2.19Z"/>
      <path class="cls-2" d="m157.33,31.89h-.02s0-.02-.01-.02c0,0,0,0,0,0l-.03-.02h.51c.12,0,.25,0,.41,0h2.52c.11,0,.2,0,.29,0h.79v-6.22h0v-1.96h-4.72v3.14l-1-.69c-.15.42-.69,1.29-1.17,1.86-.22-.75-.31-1.41-.31-2.11v-.21h-.78c-.08,0-.16,0-.25,0h-1.78c-.05,0-.1,0-.15,0h-1.09v1.21h2.67v.99h-.01v5.42c0,.27-.07.33-.49.33-.23,0-.68-.05-1.14-.14l.37,1.35c.35.03.53.03.85.03.81,0,1.15-.05,1.41-.23.22-.17.33-.43.33-.82v-1.8c0-.51-.01-1.42-.04-1.97.6,1.54,1.26,2.41,2.44,3.18,1.26.82,2.71,1.26,4.87,1.48.07-.24.13-.44.21-.63l.26-.8c-1.11-.07-1.82-.17-2.62-.36-.98-.26-1.68-.56-2.32-1.02Zm1.06-6.97h2.07v2.21h-2.07v-2.21Zm0,3.39h2.07v2.28h-2.07v-2.28Zm-1.31,2.31v1.07l-.03-.03c-.65-.57-1.18-1.33-1.65-2.36.38-.43.68-.81,1.14-1.43.31-.44.37-.52.54-.74v3.49Z"/>
      <path class="cls-2" d="m211.58,28.25c-.48.17-.65.23-1.03.36v-1.99h1.03v-1.26h-1.04v-2.39h-1.44v2.39h-1.61v1.26h1.61v2.46c-.38.1-.64.18-.85.23l-.83.23.28,1.35,1.4-.46v2.79c0,.35-.08.4-.53.4-.3,0-.7-.04-1.1-.1l.33,1.35c.42.03.64.04.96.04,1.44,0,1.79-.25,1.79-1.29v-3.7c.41-.16.44-.17,1.03-.39v-1.29Z"/>
      <path class="cls-2" d="m139.75,23.41h-1.92s-.06,0-.1,0h-1.35v1.45c0,.11,0,.23,0,.35s0,.23,0,.34v.27h0c0,.17,0,.33,0,.5h0v8.48h1.39v-4.09h2.01v2.34c0,.3-.09.39-.46.39-.3,0-.73-.04-1.29-.12l.37,1.41c.41.01.56.01.84.01,1.08,0,1.41-.06,1.68-.35.15-.13.2-.25.26-.51.02-.08.03-.16.03-.16v-.23s.01-8.77.01-8.77c0-.6.01-1.02.04-1.31h-1.39s-.06,0-.1,0Zm.01,6.08h-2.01v-.55c.01-.34.02-.57.03-1.32h1.98v1.87Zm0-3.08h-1.97v-1.74h1.97v1.74Z"/>
      <path class="cls-2" d="m145.87,23.42h-2.16c-.34,0-.6,0-.84-.01h-.59v1.26h0c0,.35,0,.81,0,1.44h0v8.69h1.42v-4.11h2.11v2.3c0,.36-.08.43-.58.43-.45,0-.77-.03-1.25-.1l.37,1.44c.49.03.72.04.96.04,1.56,0,1.95-.3,1.95-1.54v-8.47c0-.67.01-1.06.05-1.38h-.59c-.23,0-.5.01-.87.01Zm-.04,6.08h-2.11v-1.87h2.11v1.87Zm0-3.08h-2.11v-1.74h2.11v1.74Z"/>
    </g>
  </g>
</svg>