<?xml version="1.0" encoding="UTF-8"?>
<svg id="txt" xmlns="http://www.w3.org/2000/svg" viewBox="0 0 220 52">
  <defs>
    <style>
      .cls-1 {
        fill: #231815;
        stroke-width: 0px;
      }
    </style>
  </defs>
  <path class="cls-1" d="m117.42,25.77h-3.31c.18.62.37,1.18.5,1.76,1.04,4.52-.82,9.48-5.6,11.54-1.78.77-3.64.92-5.55.77-1.61-.13-3.11-.62-4.47-1.48-2.17-1.36-3.57-3.29-4.21-5.78-.54-2.12-.46-4.22.3-6.26,1.12-3.02,3.26-5.01,6.35-5.89,3.22-.92,6.33-.61,9.21,1.23.91.58,1.67,1.33,2.36,2.24.24-.38.08-.74.11-1.08.04-.38.01-.77.01-1.16,0-.36,0-.72,0-1.17.75-.03,1.45,0,2.14-.01.68,0,1.37,0,2.12,0,.02-.23.05-.41.05-.6,0-1.05,0-2.1,0-3.15,0-.72.11-1.41.4-2.07.73-1.59,2-2.49,3.72-2.55,2.36-.08,4.72-.03,7.08-.03.06,0,.12.04.22.08v5.06h-5.16v3.14c.47.15,6.18.19,7.14.05,0-.9,0-1.81.01-2.72,0-.92,0-1.85,0-2.77s0-1.84,0-2.8h6.17c.02.24.05.51.05.77,0,2.3,0,4.59,0,6.89,0,.21,0,.42,0,.69h10.67c.99,3.44,1.85,6.87,2.82,10.27.05,0,.1,0,.15,0,.91-3.4,1.82-6.8,2.74-10.22h5.59c.93,3.41,1.86,6.83,2.79,10.24.05,0,.1,0,.14,0,.91-3.4,1.82-6.79,2.74-10.23h6.21c-1.02,3.26-2.11,6.46-3.16,9.66-1.05,3.21-2.11,6.43-3.16,9.64h-5.36c-.96-3.46-1.93-6.92-2.89-10.38h-.13c-1.02,3.43-1.95,6.9-2.98,10.37h-5.3c-.07-.17-.15-.33-.21-.51-1.59-4.87-3.19-9.74-4.78-14.61-.28-.86-.55-1.71-.84-2.57-.06-.17-.15-.33-.33-.45v3.92c-.52.2-1.04.08-1.54.1-.51.02-1.03,0-1.55,0-.51,0-1.02,0-1.52,0-.16.69-.15,8.36.02,8.95h4.58c.15.47.19,4.3.07,5.15-.15.01-.31.04-.48.04-1.91,0-3.82.02-5.73,0-.6,0-1.21-.02-1.78-.18-1.84-.5-2.88-1.89-2.98-3.89-.03-.54-.01-1.07-.01-1.61,0-2.55,0-5.11,0-7.66,0-.23,0-.46,0-.68-.56-.15-6.43-.17-7.17-.03v14c-.73.09-1.41.03-2.09.04-.69.01-1.37,0-2.06,0-.68,0-1.36,0-2.1,0,0-2.43,0-4.76,0-7.1,0-2.31,0-4.62,0-6.97Zm-8.75,4.32c0-1.07-.19-2-.56-2.69-.69-1.29-1.76-2.03-3.24-2.09-1.5-.07-2.73.5-3.46,1.81-1.05,1.88-1.07,3.85.05,5.69,1.49,2.45,5.07,2.34,6.53-.14.49-.84.64-1.76.68-2.58Z"/>
  <path class="cls-1" d="m189.85,39.79c-.01-.23-.03-.4-.03-.57,0-4.68,0-9.35,0-14.03,0-1.01.23-1.96.81-2.8.93-1.35,2.29-1.9,3.88-1.92,2.17-.03,4.34,0,6.5,0,.58,0,1.15,0,1.8,0,.1.93,0,1.82.07,2.79.15-.11.26-.15.33-.24,1.54-1.8,3.51-2.76,5.86-2.99,1.82-.18,3.6-.06,5.32.6,2.15.83,3.67,2.33,4.65,4.39.95,2,1.11,4.11.9,6.33-.74.11-1.46.04-2.18.05-.73.01-1.46,0-2.19,0-.73,0-1.46,0-2.19,0-.71,0-1.42,0-2.12,0-.73,0-1.46,0-2.19,0-.72,0-1.45,0-2.17,0-.03,1.29.87,2.62,2.12,3.09,1.16.44,2.35.45,3.52.01.72-.27,1.19-.82,1.46-1.56h5.95c-.03.6-.23,1.14-.45,1.66-.81,1.94-2.19,3.37-4.09,4.27-2.71,1.28-5.54,1.37-8.33.4-2.95-1.03-4.81-3.21-5.76-6.16-.74-2.3-.65-4.61.11-6.89.05-.14.06-.28.1-.48h-5.44c-.04,1.55-.01,3.1-.02,4.66,0,1.54,0,3.09,0,4.63,0,1.56,0,3.13,0,4.74h-6.2Zm23.93-12.16c-.05-2-1.57-3.26-3.73-3.19-1.87.06-3.25,1.44-3.16,3.19h6.89Z"/>
  <path class="cls-1" d="m86.22,20.98c-.05-.23-.09-.44-.15-.65-.37-1.2-1.26-1.81-2.44-2.03-.76-.14-1.54-.15-2.29.12-.73.27-1.29.72-1.41,1.52-.12.85.18,1.56.9,2.07.85.59,1.85.78,2.82,1.02,1.39.34,2.8.64,4.18,1.04.71.21,1.41.53,2.05.91,1.55.91,2.55,2.26,2.96,4.03.43,1.86.43,3.7-.25,5.5-.81,2.16-2.37,3.58-4.46,4.46-2.03.85-4.15.99-6.31.85-1.7-.11-3.29-.58-4.74-1.48-2.38-1.48-3.73-3.67-4.2-6.41-.08-.48-.12-.97-.17-1.45.48-.16,5.03-.22,6.37-.09.04.18.1.38.14.59.52,2.51,2.66,3.34,4.56,3.07.69-.1,1.33-.31,1.88-.77.91-.76,1.14-2.44-.15-3.26-.48-.3-1.03-.53-1.58-.69-1.57-.44-3.16-.81-4.72-1.24-1.45-.4-2.75-1.08-3.82-2.16-1.07-1.08-1.64-2.41-1.84-3.89-.19-1.4-.24-2.82.24-4.2.75-2.16,2.24-3.67,4.31-4.52,3.42-1.41,6.86-1.32,10.14.37,2.89,1.49,4.18,4.05,4.33,7.23-.45.16-5.5.2-6.35.06Z"/>
  <path class="cls-1" d="m16.6,28.61H5.65c-.15.62-.05,1.24-.07,1.85-.02.62,0,1.24,0,1.87,0,.62,0,1.24,0,1.87,0,.6,0,1.2,0,1.8,0,.62,0,1.24,0,1.87,0,.62,0,1.24,0,1.84-.49.16-4.89.19-5.57.04V13.08c.43-.15,4.83-.18,5.57-.03v10.48c.55.15,10.17.19,10.99.04.08-.68.02-1.38.03-2.08,0-.71,0-1.42,0-2.12,0-.69,0-1.37,0-2.06,0-.71,0-1.42,0-2.12,0-.7,0-1.41,0-2.1.46-.16,4.41-.22,5.54-.1.01.01.03.03.04.04.01.02.04.03.04.05.02.06.04.12.04.19,0,8.73,0,17.46,0,26.19,0,.08-.03.17-.04.24-.49.16-4.99.17-5.63,0v-11.11Z"/>
  <path class="cls-1" d="m49.6,21.96h-5.44c-.05-.14-.1-.28-.13-.42-.59-2.31-2.14-3.61-4.41-4.08-3.36-.7-6.5,1.02-7.68,4.24-1.11,3.01-1.14,6.07.09,9.04,1.92,4.65,7.16,5.06,10.11,2.93.99-.71,1.65-1.67,1.98-2.85.05-.18.1-.36.16-.56h5.15c.09.55-.05,1.08-.18,1.58-.85,3.46-2.94,5.85-6.26,7.14-2.78,1.08-5.63,1.15-8.47.35-3.62-1.02-6.1-3.39-7.52-6.85-.97-2.37-1.22-4.85-1.11-7.38.09-1.95.45-3.83,1.25-5.62,1.45-3.26,3.84-5.52,7.28-6.51,3.69-1.07,7.28-.75,10.57,1.35,2.27,1.45,3.67,3.56,4.31,6.17.12.47.19.95.29,1.48Z"/>
  <path class="cls-1" d="m176.03,27.08h-5.35c-.02-.73.14-1.39.35-2.03.82-2.43,2.54-3.93,4.97-4.62,2.59-.73,5.18-.71,7.67.41,2.12.96,3.53,2.55,4.03,4.86.12.54.13,1.11.14,1.66.01,4.01,0,8.02,0,12.04,0,.1-.02.21-.03.36h-6.16v-2.23c-.16.15-.23.19-.27.25-.64,1.18-1.76,1.67-2.97,1.94-.94.21-1.91.2-2.88.06-2.62-.39-4.84-2.63-4.86-5.56-.01-1.43.32-2.77,1.23-3.91,1.06-1.33,2.51-2.01,4.16-2.19,1.08-.12,2.19-.07,3.28-.1.24,0,.47,0,.71,0,.68-.01,1.23-.29,1.48-.94.27-.69.17-1.35-.34-1.92-.03-.03-.06-.06-.09-.09-.96-.78-2.06-.8-3.17-.52-1.07.27-1.61,1.07-1.79,2.14-.02.12-.06.24-.1.36Zm5.61,4.77c-.55,0-1.04,0-1.52,0-.68,0-1.37-.02-2.05.05-.83.09-1.46.86-1.52,1.75-.05.83.4,1.49,1.22,1.74.95.29,1.82.1,2.59-.52.92-.74,1.27-1.74,1.28-3.03Z"/>
  <path class="cls-1" d="m70.64,34.88v4.9c-.18.02-.34.05-.51.05-3.99,0-7.98,0-11.97,0-.68,0-1.39,0-2.04-.17-1.95-.5-3.04-1.91-3.18-3.96-.02-.34-.03-.69-.03-1.03,0-6.99,0-13.98,0-20.98,0-.21,0-.42,0-.68h5.64c.02,1.45,0,2.9.01,4.35,0,1.46,0,2.92,0,4.38,0,1.44,0,2.87,0,4.31,0,1.46,0,2.92,0,4.38,0,1.45,0,2.91,0,4.45,1.39.03,2.71.01,4.03.01,1.33,0,2.66,0,3.99,0h4.05Z"/>
</svg>