<?xml version="1.0" encoding="UTF-8"?>
<svg id="txt" xmlns="http://www.w3.org/2000/svg" viewBox="0 0 200 52">
  <defs>
    <style>
      .cls-1 {
        stroke-width: 0px;
      }
    </style>
  </defs>
  <path class="cls-1" d="m26.73,37.85h2.42c-.33,1.98-.63,3.87-.94,5.71-3.97,3.2-10.21,1.12-11.52-3.86-1.38,2.9-3.54,4.71-6.74,5.19-3.9.58-7.24-1.2-8.77-4.87-1.87-4.48-1.32-8.96.36-13.35,1.23-3.21,3.09-5.96,6.39-7.42,1.76-.78,3.62-1.2,5.53-.94,2.64.37,4.82,1.51,5.85,4.49.84-1.43,1.56-2.66,2.26-3.85h8.26c-.87,6.31-2.34,12.45-3.1,18.91Zm-16.2-4.82c0,.43-.04.87,0,1.3.24,2,1.61,3.12,3.46,2.82,1.14-.18,1.91-.89,2.42-1.89,1.14-2.23,1.5-4.65,1.4-7.1-.09-2.3-2.11-3.33-4.16-2.23-.6.32-1.16.85-1.56,1.4-1.23,1.69-1.54,3.66-1.57,5.7Z"/>
  <path class="cls-1" d="m113.67,18.97c-.61,3.48-1.2,6.84-1.79,10.21-.42,2.36-.87,4.72-1.24,7.09-.08.5.09,1.03.16,1.61h2.16c-.35,2.02-.68,3.95-1.02,5.92-2.22,1.08-4.53,1.36-6.91.84-2.55-.56-4.19-2.1-4.4-4.69-1.04,1.13-1.94,2.42-3.13,3.32-2.32,1.77-4.98,2.28-7.83,1.38-2.85-.9-4.83-3.26-4.76-6.23.07-2.7.51-5.4.93-8.07.59-3.77,1.31-7.51,2-11.36h10.16c-.35,2.07-.67,4.08-1.03,6.08-.5,2.87-1.03,5.73-1.53,8.6-.05.27-.03.55-.05.83-.06.96.11,1.85,1.03,2.35.8.43,2.51.13,3.01-.75.74-1.3,1.43-2.73,1.73-4.18.86-4.16,1.51-8.37,2.24-12.55.02-.11.09-.21.17-.38h10.08Z"/>
  <path class="cls-1" d="m83.35,29.59c-.2,5.76-2.05,10.81-7.42,13.58-5.16,2.66-10.52,2.89-15.51-.76-2.29-1.67-3.66-3.97-3.87-6.77-.43-5.84.97-11.03,5.87-14.79,4.59-3.52,12.99-3.72,17.3.23,2.52,2.32,3.78,5.07,3.62,8.5Zm-17.16,3.73l.15.05c.04.59.05,1.18.14,1.76.16,1.12.63,2.09,1.79,2.41,1.17.32,2.34.12,3.08-.94,1.99-2.86,2.61-6.02,1.69-9.4-.31-1.15-1.2-1.67-2.43-1.63-1.82.06-2.66,1.32-3.16,2.74-.57,1.61-.85,3.33-1.25,5Z"/>
  <path class="cls-1" d="m139.39,26.65c-2.77.14-5.49.28-8.17.42-1.14-2.35-2.06-2.89-3.97-2.39-1.03.27-1.4.93-1.15,2.33.85.33,1.86.78,2.91,1.13,1.45.49,2.96.84,4.39,1.37,5.61,2.07,5.64,6.74,3.24,10.63-1.71,2.77-4.53,3.99-7.59,4.57-4.06.77-8.02.5-11.68-1.67-2.24-1.32-3.68-3.15-3.86-6,2.94-.37,5.81-.74,8.75-1.11.63,2.01,2,2.81,3.98,2.67.96-.07,1.57-.57,1.73-1.48.15-.88-.52-1.29-1.22-1.51-1.91-.61-3.91-.99-5.76-1.75-5.76-2.34-6.51-8.91-1.63-12.82,5.04-4.05,13.82-3.25,17.44-.27,1.63,1.34,2.68,3.56,2.57,5.9Z"/>
  <path class="cls-1" d="m159.42,26.28h-5.93c-.4,2.23-.79,4.35-1.16,6.47-.13.78-.28,1.56-.32,2.34-.06,1.24.54,1.93,1.76,1.81,1.26-.13,2.49-.52,3.84-.82v6.44c-1.21,1.1-2.83,1.76-4.58,2.16-2.61.58-5.18.51-7.66-.51-2.43-1-3.86-2.92-3.77-5.5.1-2.82.64-5.62,1.02-8.42.17-1.24.43-2.47.68-3.86-1-.07-1.89-.13-3-.2.41-2.45.81-4.82,1.21-7.27h3.13c.35-1.81.68-3.57,1.05-5.51,3.33-.34,6.68-.69,10.26-1.06-.37,2.22-.71,4.29-1.08,6.53h5.85c-.44,2.53-.85,4.88-1.3,7.41Z"/>
  <path class="cls-1" d="m46.77,34.22c2.78.91,5.43,1.77,8.2,2.67-.67,2.26-1.82,4.1-3.6,5.49-2.89,2.26-6.26,2.79-9.83,2.57-2.75-.16-5.13-1.16-7.2-2.93-2.16-1.84-3.32-4.24-3.44-7.03-.18-4.07.54-7.98,3.08-11.29,3.25-4.22,7.65-5.91,12.91-5.41,3.06.29,5.77,1.27,7.61,3.94,1.21,1.76,1.59,3.73,1.65,6-2.86.35-5.7.7-8.6,1.06-.13-.76-.17-1.43-.36-2.05-.51-1.7-2.27-2.32-3.65-1.19-.73.6-1.34,1.46-1.73,2.33-.86,1.97-1.12,4.09-.99,6.25.1,1.6.89,2.74,2.07,2.97,1.42.28,2.54-.39,3.25-1.95.19-.42.36-.86.6-1.44Z"/>
  <path class="cls-1" d="m190.75,34.24c2.71.88,5.39,1.75,8.17,2.65-.86,2.72-2.33,4.83-4.7,6.24-2.89,1.72-6.04,2.09-9.35,1.74-3.61-.38-6.49-2.02-8.41-5.03-.84-1.31-1.42-2.97-1.54-4.51-.5-6.45,1.84-13.33,8.95-16.14,3.65-1.44,7.35-1.36,10.96.09,3.42,1.37,5.32,4.77,5.15,8.98-2.79.34-5.62.69-8.53,1.04-.05-.54-.05-.92-.12-1.3-.17-.99-.41-2.02-1.53-2.32-1.14-.31-2.19-.04-2.99.93-1.4,1.69-1.8,3.75-1.99,5.83-.1,1.08,0,2.2.19,3.28.18,1.05.89,1.75,2,1.9,1.16.15,2.12-.23,2.71-1.27.37-.64.64-1.33,1.02-2.11Z"/>
  <path class="cls-1" d="m173.77,18.97c-.84,6.31-2.38,12.44-3.05,18.86h2.4c-.38,2.1-.73,4.05-1.08,6.01-2.88,1.16-5.67,1.48-8.49.32-2.27-.93-3.59-3.54-3.15-6.28.59-3.73,1.24-7.45,1.89-11.17.44-2.56.92-5.11,1.4-7.74h10.1Z"/>
  <path class="cls-1" d="m175.62,11.95c0,2.94-2.51,5.07-5.96,5.05-3.12-.01-5.35-2.14-5.34-5.1,0-2.82,2.53-5.06,5.73-5.07,3.27-.01,5.57,2.1,5.57,5.12Z"/>
</svg>